<svg viewBox="0 0 16 16" xmlns="http://www.w3.org/2000/svg"><g fill="#434343" fill-rule="evenodd"><path d="m7.946 9.976c1.07474612 0 2.04368506-.89005788 2.04368506-1.98799996 0-1.09794209-.96893894-1.98800004-2.04368506-1.98800004s-1.946.89005792-1.946 1.988.87125388 1.988 1.946 1.988z"/><path d="m5.21041012 3.98431384c-.198-.229-.23599996-.68031381-.03399996-.91431381l2.37258984-2.93400003c.203-.235.527-.238.729-.005l2.5367193 2.95100003c.202.229.202.66931381 0 .90231381z"/><path d="m10.8208619 12.0411987c.2.168.198.5198013 0 .6878013l-2.5068619 3.104c-.203.167-.525.167-.725 0l-2.36524512-3.104c-.2-.168-.2-.5178013 0-.6858013z"/><path d="m12.93 5.268 2.934 2.306c.234.21.238.551.006.76l-2.948 2.411c-.228.207-.6544165.211-.8864165 0v-5.48299988s.6614165-.20400012.8944165.00599988z"/><path d="m4.0128603 10.7889999c-.229.209-.6878603.2070001-.9168603.0000001l-2.932-2.459c-.23-.211-.23-.549.004-.76l2.908-2.357c.229-.207.70686035-.20900007.93686035-.00000007z"/></g></svg>