<svg fill="none" height="20" viewBox="0 0 20 20" width="20" xmlns="http://www.w3.org/2000/svg"><g fill="#212121"><path d="m8 8.5c0 .82843-.67157 1.5-1.5 1.5s-1.5-.67157-1.5-1.5.67157-1.5 1.5-1.5 1.5.67157 1.5 1.5z"/><path d="m4 11.6988c0-.524.42479-.9488.94879-.9488h3.10242c.524 0 .94879.4248.94879.9488 0 .8472-.57662 1.5857-1.39856 1.7912l-.05901.0148c-.68442.1711-1.40044.1711-2.08486 0l-.05901-.0148c-.82195-.2055-1.39856-.944-1.39856-1.7912z"/><path d="m11.5 8c-.2761 0-.5.22386-.5.5s.2239.5.5.5h3c.2761 0 .5-.22386.5-.5s-.2239-.5-.5-.5z"/><path d="m11.5 11c-.2761 0-.5.2239-.5.5s.2239.5.5.5h3c.2761 0 .5-.2239.5-.5s-.2239-.5-.5-.5z"/><path d="m2 5.75c0-.9665.7835-1.75 1.75-1.75h12.5c.9665 0 1.75.7835 1.75 1.75v8.5c0 .9665-.7835 1.75-1.75 1.75h-12.5c-.9665 0-1.75-.7835-1.75-1.75zm1.75-.75c-.41421 0-.75.33579-.75.75v8.5c0 .4142.33579.75.75.75h12.5c.4142 0 .75-.3358.75-.75v-8.5c0-.41421-.3358-.75-.75-.75z"/></g></svg>